<svg xmlns="http://www.w3.org/2000/svg" width="148" height="44" viewBox="0 0 148 44">
    <g fill="none" fillRule="evenodd">
        <path fill="#B2B2B2" d="M140.32 41.325L138.919 1.79 0 .824c1.295 8.293 1.785 19.427.087 39.108 53.489-2.457 97.962-2.586 140.234 1.393" transform="translate(2 1.257)"/>
        <path fill="#FFCE44" d="M2.115 37.395L143.419 37.912 143.129 0.519 1.824 0z" transform="translate(2 1.257)"/>
        <g>
            <path fill="#004899" d="M72.933 3.025c.163 0 .323.003.476.006.157.005.315.014.476.023.985.058 1.893.284 2.72.672.825.39 1.239 1.136 1.239 2.241 0 1.311-.544 2.347-1.633 3.11-1.09.764-2.29 1.282-3.597 1.56-.387.078-.77.137-1.152.177-.38.038-.748.06-1.103.06h-.193c-.162 0-.348-.008-.562-.024-.214-.014-.541-.041-.981-.081l-.677.974c.105.032.183.07.233.12.048.05.072.108.072.176 0 .06-.055.176-.168.349-.112.172-.25.356-.41.553-.066.089-.135.173-.21.252-.076.079-.151.16-.228.236-.137.13-.271.233-.4.318-.13.086-.24.126-.337.126-.172 0-.306-.048-.404-.14-.097-.096-.142-.224-.142-.392 0-.159.05-.358.158-.599.108-.24.242-.49.403-.746.042-.078.09-.154.137-.22l.138-.208c.138-.208.271-.4.395-.578.122-.176.226-.328.313-.458-.128-.078-.237-.152-.323-.222-.085-.066-.156-.132-.21-.192-.053-.078-.093-.159-.12-.234-.025-.08-.04-.174-.04-.283 0-.176.057-.335.168-.471.114-.14.315-.27.604-.4.194-.09.436-.178.726-.266.288-.09.638-.188 1.046-.297l2.542-3.072c-.73.069-1.459.155-2.189.258-.728.103-1.444.258-2.14.464-.301.1-.517.165-.653.194-.132.028-.253.047-.362.058h-.11c-.077 0-.136-.012-.178-.036-.042-.025-.065-.058-.065-.096 0-.09.047-.217.146-.386.097-.165.207-.342.335-.53l.09-.112c.027-.034.05-.072.073-.11.15-.196.288-.373.417-.523.129-.155.205-.242.226-.259.29-.229.872-.432 1.745-.615.876-.183 1.806-.298 2.793-.348.162-.009.316-.018.468-.023.15-.003.3-.006.448-.006zm17.592 2.792c.184 0 .317.025.401.076.088.048.13.123.13.22 0 .06-.028.133-.088.223-.06.087-.121.181-.185.28-.022.011-.037.022-.047.036-.011.015-.024.029-.032.038l-.154.193c-.048.06-.088.112-.12.162.116 0 .218.003.296.007.082.003.159.012.233.022.065.012.13.02.196.029.065.01.144.021.24.03l-.338.532-.202.348c-.058.105-.115.196-.168.273-.162.237-.36.396-.604.48-.24.085-.673.126-1.295.126-.472.57-.841 1.097-1.102 1.574-.265.478-.396.86-.396 1.146 0 .217.042.378.122.487.082.109.207.164.379.164.158 0 .36-.049.604-.148.24-.1.484-.219.73-.356.076-.039.154-.079.234-.125.079-.044.159-.085.233-.125.192-.129.38-.25.555-.363.18-.114.325-.206.441-.273-.008.048-.015.1-.022.155-.006.055-.007.106-.007.154v.311c-.16.128-.345.266-.55.412-.204.15-.417.303-.642.46-.191.138-.398.274-.613.407-.214.134-.421.254-.625.364-.28.135-.552.25-.815.338-.263.088-.518.132-.764.132-.302 0-.538-.085-.718-.259-.174-.171-.264-.41-.264-.714 0-.228.06-.504.179-.83.117-.325.284-.675.498-1.05-.152.12-.274.215-.37.282-.098.07-.187.133-.273.192 0 0-.004 0-.008.007l-.026.022c-.054.03-.109.065-.167.112-.057.04-.126.084-.204.132 0 .006 0 .004 0 0-.007.003-.01.006-.015.01-.146.111-.32.247-.524.405-.208.163-.43.332-.667.51-.107.089-.221.172-.337.25-.119.08-.237.157-.354.238-.28.176-.554.326-.82.45-.27.123-.512.183-.725.183-.16 0-.303-.058-.42-.175-.116-.12-.2-.242-.24-.37 0-.03-.004-.057-.007-.082-.007-.024-.01-.05-.01-.082 0-.204.046-.435.138-.685.091-.251.247-.594.473-1.028-.129.088-.304.224-.53.405-.226.184-.472.376-.74.586-.065.04-.126.082-.188.126l-.168.125c-.311.226-.61.42-.9.582-.289.165-.513.245-.674.245-.238 0-.45-.099-.636-.296-.188-.196-.343-.419-.459-.664-.077-.128-.136-.26-.178-.392-.042-.133-.076-.244-.096-.332v-.327c0-.048 0-.1.008-.154.005-.055.012-.107.022-.155.024-.08.057-.161.107-.243.048-.085.104-.166.169-.247.29-.363.71-.715 1.262-1.056.554-.339 1.135-.636 1.747-.893.503-.207.995-.375 1.471-.503.478-.129.878-.191 1.2-.191.213 0 .397.044.548.134.148.089.279.216.387.383.02.038.037.07.048.096.011.024.014.046.014.068 0 .077-.031.14-.096.184-.062.042-.133.08-.21.108-.054.021-.101.04-.143.054-.043.014-.08.027-.113.035.17.07.289.146.353.23.066.084.097.195.097.333 0 .148-.073.31-.225.486-.15.18-.31.36-.483.548-.075.08-.146.158-.217.238-.071.078-.137.156-.202.236-.085.128-.157.251-.218.37-.057.116-.088.231-.088.34 0 .128.052.231.153.31.102.078.23.117.379.117h.072c.026 0 .052-.004.074-.013.17-.013.38-.092.627-.238.247-.147.699-.443 1.352-.886.322-.228.584-.42.787-.569.205-.154.382-.3.531-.437.067-.05.126-.102.178-.162.055-.061.106-.112.162-.162.086-.099.174-.208.265-.32.09-.113.19-.241.296-.39-.106-.01-.196-.015-.273-.015h-.195c-.125 0-.268.008-.425.022-.155.014-.366.048-.635.096.162-.236.304-.444.427-.62.125-.177.238-.332.345-.458.227-.256.483-.438.774-.54.288-.101.735-.17 1.336-.2.236-.314.432-.562.586-.74.156-.175.31-.308.458-.397.098-.06.203-.1.315-.126.114-.023.238-.038.378-.038zm16.915-2.806c.246 0 .449.083.604.25.156.168.234.38.234.637 0 .227-.05.47-.146.73-.096.262-.22.52-.37.776-.086.147-.178.296-.273.444l-.291.441c-.14.209-.276.407-.41.594-.134.186-.255.363-.361.532.085.01.15.032.2.066.049.034.074.076.074.126 0 .047-.077.15-.227.303-.15.152-.332.312-.546.48-.076.059-.154.117-.236.177l-.12.089-.127.089c-.193.127-.385.239-.574.333-.187.094-.337.14-.456.14-.107 0-.195-.038-.258-.111-.066-.074-.097-.176-.097-.305 0-.185.031-.385.097-.598.063-.21.154-.42.273-.63.128-.253.285-.505.468-.75.18-.246.362-.48.547-.695.138-.158.272-.305.402-.444.127-.137.25-.262.37-.369.022-.02.037-.036.049-.051l.032-.053c.011-.01.017-.025.024-.046.005-.018.007-.034.007-.041 0-.022-.007-.038-.024-.054-.015-.015-.034-.02-.055-.02-.045 0-.095.016-.153.05-.061.036-.132.093-.219.17-.117.1-.235.2-.352.304-.12.103-.241.208-.372.318-.203.185-.403.377-.602.575-.2.198-.389.394-.572.591L102 9.16l-1.706 1.744c.6.017 1.178.074 1.73.16.553.09 1.102.193 1.65.312.182.038.359.08.532.118.172.04.346.077.53.119.321.078.65.156.981.23.334.073.671.14 1.015.197l-.282.267c-.1.1-.2.201-.297.311-.257.235-.53.456-.821.658-.289.2-.607.302-.95.302-.174 0-.418-.025-.741-.08-.32-.055-.927-.162-1.819-.32-.17-.028-.345-.06-.523-.096-.176-.034-.35-.06-.52-.08-.529-.088-1.052-.158-1.58-.206-.524-.051-1.05-.075-1.576-.075-.055.02-.108.043-.16.075-.056.029-.109.057-.162.088-.192.088-.392.17-.595.244-.203.074-.415.109-.628.109-.204 0-.35-.019-.435-.059-.083-.037-.13-.11-.13-.206 0-.026.025-.073.035-.109-.028.016-.063.037-.09.051-.53.275-.948.414-1.246.414-.194 0-.357-.072-.493-.214-.134-.144-.201-.315-.201-.512 0-.136.02-.28.064-.427.044-.148.11-.297.196-.443.095-.187.21-.375.346-.563.132-.186.269-.37.41-.547.116-.147.234-.289.351-.42.119-.133.227-.26.324-.377-.654.423-1.282.883-1.884 1.375-.602.49-1.168 1.016-1.705 1.564-.098.1-.188.176-.273.229-.088.055-.161.083-.226.083-.205 0-.345-.116-.426-.346-.08-.231-.127-.639-.136-1.22 0-.71.19-1.36.577-1.952.386-.59.811-1.158 1.273-1.7.066-.069.124-.14.184-.214l.09-.11.094-.104c.216-.258.439-.507.67-.754.23-.247.463-.482.7-.708.644-.65 1.258-1.196 1.843-1.634.584-.44.994-.658 1.231-.658.03 0 .062.002.095.007.033.004.065.012.095.022.098.03.19.077.277.141.084.065.128.144.128.246 0 .254-.267.7-.805 1.336-.536.636-1.158 1.309-1.865 2.017-.088.088-.176.177-.268.265-.09.09-.179.178-.264.267-.613.61-1.196 1.176-1.756 1.692l-1.205 1.116-.016.56c.19-.126.445-.314.757-.56.31-.246.648-.503 1.013-.767.097-.071.19-.14.28-.209.09-.068.186-.137.282-.207.442-.306.865-.573 1.273-.8.407-.223.734-.338.98-.338.023 0 .046.003.074.01.025.001.048.005.072.005.159.041.307.123.433.251.13.13.194.266.194.414 0 .167-.087.352-.265.553-.177.204-.379.409-.606.615 0 0-.003.002-.006.008-.004.005-.01.006-.01.006-.224.218-.429.427-.617.628-.189.204-.282.388-.282.556 0 .117.03.204.089.259.058.054.152.08.28.08.226 0 .49-.07.798-.214l.07-.036c.087-.099.162-.19.26-.297.085-.099.247-.173.484-.23.081-.017.167-.027.249-.042l.25-.156c0 .035-.004.075-.007.114.077-.012.151-.03.23-.04.183-.02.358-.032.523-.038.167-.005.308-.013.427-.022.044 0 .08-.001.11-.007.033-.005.062-.007.084-.007.386-.405.777-.835 1.175-1.294.395-.46.803-.918 1.223-1.381.354-.395.712-.789 1.076-1.184.367-.393.73-.773 1.095-1.137.249-.246.491-.481.73-.71.244-.223.488-.443.736-.648.676-.553 1.19-.94 1.544-1.17.354-.225.624-.338.805-.338zm-59.145 0c.248 0 .449.083.604.25.155.168.233.38.233.637 0 .227-.048.47-.145.73-.096.262-.22.52-.37.776-.086.147-.176.296-.273.444-.096.148-.193.296-.29.441-.139.209-.275.407-.41.594-.134.186-.254.363-.361.532.084.01.152.032.201.066.047.034.071.076.071.126 0 .047-.074.15-.224.303-.152.152-.332.312-.548.48-.075.059-.154.117-.234.177-.08.06-.163.118-.249.178-.193.127-.384.239-.57.333-.189.094-.342.14-.459.14-.109 0-.194-.038-.258-.111-.064-.074-.096-.176-.096-.305 0-.185.032-.385.096-.598.064-.21.155-.42.273-.63.129-.253.284-.505.467-.75.184-.246.366-.48.547-.695.14-.158.275-.305.404-.444.126-.137.25-.262.368-.369.023-.02.039-.036.05-.051l.032-.053c.01-.01.018-.025.025-.046.003-.018.006-.034.006-.041 0-.022-.006-.038-.024-.054-.016-.015-.035-.02-.057-.02-.042 0-.093.016-.153.05-.058.036-.13.093-.215.17-.12.1-.238.2-.355.304l-.37.318c-.204.185-.405.377-.606.575-.196.198-.386.394-.57.591l-1.978 2.1-1.707 1.744c.6.017 1.177.074 1.732.16.55.09 1.1.193 1.647.312.182.038.36.08.531.118.173.04.35.077.533.119.321.078.65.156.982.23.331.073.67.14 1.013.197-.084.08-.18.169-.282.267-.101.1-.202.201-.297.311-.259.235-.532.456-.82.658-.29.2-.61.302-.95.302-.172 0-.42-.025-.74-.08-.325-.055-.93-.162-1.82-.32-.171-.028-.346-.06-.523-.096-.176-.034-.35-.06-.523-.08-.527-.088-1.051-.158-1.58-.206-.523-.051-1.048-.075-1.577-.075-.051.02-.106.043-.158.075-.053.029-.109.057-.16.088-.194.088-.393.17-.597.244-.204.074-.414.109-.627.109-.204 0-.35-.019-.434-.059-.087-.037-.13-.11-.13-.206 0-.119.102-.32.306-.605.205-.286.5-.64.885-1.065.087-.099.249-.173.483-.23.236-.053.477-.094.725-.124.182-.02.356-.032.521-.038.168-.005.309-.013.43-.022.041 0 .078-.001.111-.007.031-.005.057-.007.08-.007.387-.405.777-.835 1.175-1.294.396-.46.806-.918 1.223-1.381.354-.395.713-.789 1.078-1.184.364-.393.73-.773 1.094-1.137.247-.246.49-.481.733-.71.242-.223.485-.443.732-.648.675-.553 1.192-.94 1.546-1.17.353-.225.621-.338.803-.338zm13.584 1.094c.097 0 .177.041.247.124.072.085.107.19.107.318v.022c0 .006-.005.01-.016.01-.011.106-.023.217-.04.33-.016.113-.035.228-.058.349-.042.186-.093.374-.152.56-.058.188-.127.37-.2.547-.237.521-.57 1.022-.998 1.499-.431.479-.882.938-1.354 1.383-.202.197-.409.386-.616.57-.213.182-.411.36-.605.537-.021.158-.04.297-.059.415-.014.118-.023.22-.023.31 0 .326.077.566.226.717.151.153.377.23.676.23.311 0 .656-.086 1.038-.258.382-.173.882-.471 1.505-.895-.011.109-.017.196-.023.266-.008.068-.009.128-.009.177v.081c0 .032.006.07.015.114-.142.107-.301.224-.482.352-.181.128-.377.262-.582.4-.147.087-.297.18-.449.273-.149.091-.3.185-.45.272-.268.138-.53.253-.787.341-.262.087-.493.132-.712.132-.458 0-.802-.139-1.027-.412-.226-.276-.364-.725-.418-1.345l.001-.019-.525.41c-.209.164-.43.332-.667.51-.109.088-.221.173-.338.25-.12.08-.237.158-.354.238-.28.175-.554.327-.82.451-.269.122-.511.183-.725.183-.161 0-.3-.059-.42-.176-.116-.12-.197-.243-.241-.37 0-.03-.002-.056-.007-.082-.007-.024-.008-.05-.008-.081 0-.205.045-.435.136-.687.09-.25.25-.593.475-1.026h-.001l-.082.058c-.09.064-.197.145-.32.243l-.129.103c-.224.184-.472.376-.74.586-.062.04-.124.082-.183.125-.06.043-.116.085-.17.126-.311.227-.612.42-.9.582-.293.165-.515.245-.678.245-.235 0-.448-.098-.635-.296-.188-.196-.34-.419-.46-.664-.074-.127-.133-.26-.177-.392-.042-.133-.074-.244-.096-.331v-.327c0-.049.004-.1.01-.155.004-.055.012-.107.023-.155.021-.08.053-.162.103-.243.05-.086.106-.166.17-.246.29-.364.71-.716 1.263-1.057.553-.339 1.135-.636 1.746-.893.504-.207.995-.375 1.474-.503.476-.128.876-.192 1.199-.192.213 0 .396.045.547.134.15.09.278.217.385.385.022.037.038.07.049.094.01.025.016.047.016.069 0 .078-.034.14-.096.184-.066.042-.135.08-.21.108-.053.02-.101.039-.144.053-.045.015-.08.029-.113.036.171.07.288.146.354.23.064.084.097.195.097.333 0 .147-.077.31-.225.486-.15.18-.314.36-.484.549-.075.078-.148.157-.217.237-.07.078-.137.156-.202.236-.085.129-.157.252-.217.37-.06.117-.088.23-.088.34 0 .127.048.23.153.31.102.078.228.117.377.117h.072c.03 0 .052-.003.073-.014.172-.011.383-.09.63-.237.245-.148.696-.443 1.35-.886-.011.098-.02.177-.024.235-.005.06-.007.114-.007.164v.119c0 .009.003.027.005.038v-.003l.013-.3c.04-.603.174-1.183.404-1.742l.123-.277c.367-.764.812-1.481 1.337-2.152.118-.156.28-.344.483-.56.205-.217.427-.444.676-.68.073-.08.154-.156.24-.237.087-.076.172-.152.257-.22.355-.315.689-.588 1-.814.312-.227.547-.34.708-.34zm60.607-.829c.14 0 .257.049.348.148.09.098.137.226.137.386 0 .028-.004.06-.01.095-.004.034-.013.069-.023.112-.01.017-.015.035-.015.05l-.005.024-.012.027c-.064.168-.14.337-.226.51-.086.172-.182.342-.289.51-.365.562-.816 1.125-1.352 1.686-.537.56-1.09 1.103-1.658 1.624-.418.376-.825.734-1.224 1.08-.395.344-.76.67-1.093.975-.021.08-.037.148-.05.207-.012.058-.02.114-.031.163v.133c0 .306.066.546.193.725.13.174.305.265.531.265.055 0 .11-.006.17-.022.058-.016.116-.033.168-.053.14-.059.273-.146.401-.267.13-.116.25-.255.354-.41-.063-.081-.112-.147-.142-.201-.032-.055-.056-.11-.066-.17-.01-.022-.016-.038-.016-.052v-.053c0-.117.018-.24.058-.369.037-.128.094-.254.166-.382.153-.308.371-.596.655-.865.283-.27.58-.467.892-.585.085-.03.17-.055.25-.074.08-.019.163-.03.248-.03.14 0 .25.048.33.142.08.094.12.222.12.39 0 .286-.097.632-.297 1.036-.198.403-.496.863-.891 1.374.03.02.057.04.079.06.023.019.047.032.08.044.034.02.068.03.106.035.036.005.083.008.135.008h.097c.183-.008.384-.063.605-.161.22-.1.527-.273.922-.518 0 .048-.002.1-.006.155-.005.055-.008.106-.008.155l.002-.063.006-.077c.002-.027.006-.055.01-.083l.016-.087c.557-.386 1.1-.78 1.623-1.182.526-.405 1.029-.832 1.513-1.287.117-.433.25-.727.395-.879.145-.151.361-.228.65-.228.194 0 .327.037.396.11.071.074.116.214.138.421 0 .11.013.22.04.332.025.113.057.226.088.333.01.03.019.058.024.08.005.025.014.053.025.083.042.139.082.275.118.413.04.138.059.282.059.429 0 .562-.188 1.034-.564 1.42-.375.383-.787.727-1.24 1.034-.054.038-.11.075-.17.11-.059.036-.113.071-.169.112l.258.022c.065.006.123.007.177.007.42 0 .818-.097 1.2-.288.382-.192.749-.406 1.103-.644l.297-.208c.103-.068.2-.13.298-.19-.01.109-.02.197-.025.266-.005.068-.007.128-.007.177v.081c0 .032.005.07.014.114-.043.038-.084.072-.128.101-.04.03-.083.058-.13.089-.104.067-.21.135-.313.204-.1.07-.207.147-.312.224-.45.316-.92.602-1.41.863-.488.262-1.025.394-1.615.394-.559 0-1.06-.134-1.507-.398-.445-.268-.667-.58-.667-.933 0-.207.082-.38.251-.517.165-.139.366-.208.602-.208.183 0 .364.045.547.134.181.088.343.181.484.279.032.023.06.04.08.053.02.017.044.032.063.052.409-.227.701-.467.879-.724.177-.255.265-.572.265-.947v-.25l-.039-.317c-.018-.125-.042-.315-.074-.57-.41.336-.747.613-1.022.834-.273.223-.534.426-.781.613-.031.032-.06.056-.088.075-.029.02-.058.044-.088.075l-.58.406-.692.48v-.03c-.29.19-.546.333-.773.437-.224.102-.445.175-.66.214-.084.018-.177.034-.274.044-.096.01-.196.015-.303.015-.078 0-.178-.007-.307-.023l-.434-.051c-.473.404-.91.704-1.31.9-.405.198-.766.298-1.088.298-.365 0-.643-.147-.831-.438-.186-.289-.305-.75-.36-1.38-.145.111-.32.247-.524.406-.21.164-.431.332-.667.51-.108.088-.221.172-.338.25l-.355.238c-.28.175-.553.326-.82.45-.269.122-.511.184-.724.184-.16 0-.3-.059-.418-.176-.118-.12-.2-.242-.242-.37 0-.03-.003-.056-.007-.082-.008-.025-.009-.05-.009-.081 0-.206.047-.436.137-.687.09-.25.248-.593.475-1.027-.13.088-.306.225-.532.405-.224.184-.471.376-.737.586-.068.04-.13.081-.189.125l-.168.126c-.312.226-.613.42-.901.582-.291.165-.517.245-.677.245-.234 0-.446-.098-.637-.296-.188-.196-.337-.419-.456-.663-.076-.129-.134-.26-.178-.393-.044-.133-.076-.244-.097-.332v-.326c0-.05.005-.1.008-.155.007-.055.013-.107.025-.155.02-.08.058-.162.105-.243.046-.086.103-.167.169-.247.29-.363.708-.715 1.263-1.056.552-.339 1.134-.636 1.744-.893.505-.207.997-.375 1.474-.503.478-.128.878-.192 1.2-.192.213 0 .4.045.547.134.149.09.277.217.386.384.022.038.037.071.048.096.011.024.016.046.016.068 0 .077-.033.14-.096.184-.066.042-.137.08-.209.108-.055.021-.103.039-.145.053-.046.015-.08.029-.113.036.171.069.29.146.354.23.064.084.097.195.097.333 0 .147-.074.31-.226.486-.15.18-.31.36-.483.548-.074.08-.147.158-.216.238-.07.078-.137.156-.2.236-.089.128-.162.251-.218.37-.06.116-.088.231-.088.34 0 .127.049.23.15.31.103.078.23.117.378.117h.074c.026 0 .051-.004.071-.014.173-.011.383-.09.63-.237.244-.147.696-.443 1.351-.886-.012.098-.02.177-.024.235-.007.06-.007.114-.007.163v.12l.004.04c.013-1.036.255-1.99.742-2.87.5-.903 1.123-1.742 1.874-2.523.152-.144.347-.329.588-.544.241-.218.514-.444.814-.681.107-.09.22-.178.346-.273l.361-.275c.386-.276.756-.508 1.112-.7.354-.193.644-.289.867-.289zM23.06 3.01c1.04 0 1.95.129 2.72.385.773.255 1.352.622 1.739 1.094.14.174.268.4.386.671.12.27.21.55.273.836.033.148.06.293.082.435.021.144.032.283.032.422 0 1.498-.691 2.746-2.07 3.746-1.376 1-2.893 1.732-4.544 2.196-.698.206-1.386.357-2.061.449-.676.096-1.304.142-1.884.142-.558 0-.947-.066-1.166-.201-.22-.132-.33-.367-.33-.702 0-.236.043-.482.129-.74.086-.254.198-.516.337-.782.173-.316.38-.629.62-.938.241-.31.487-.607.732-.893.194-.218.382-.424.563-.623.183-.196.355-.374.515-.531l2.447-2.764c-.611.069-1.147.15-1.6.237-.457.09-.9.202-1.33.34-.074.02-.153.043-.233.073-.079.031-.165.06-.248.089h.853c.148.009.256.028.322.05.063.026.097.063.097.112 0 .06-.035.11-.106.15-.07.037-.196.078-.378.115-.15.03-.308.069-.477.113-.163.045-.328.09-.488.141-.054.01-.106.02-.154.035-.049.015-.094.028-.137.038-.235.07-.467.127-.699.17-.232.045-.453.068-.668.068-.194 0-.346-.048-.459-.14-.112-.097-.168-.221-.168-.38 0-.078.008-.16.023-.25.016-.088.04-.177.072-.267.012-.04.022-.08.033-.123.01-.048.028-.093.05-.143l.062-.184c.022-.065.038-.127.05-.185.127-.481.567-.88 1.32-1.188.75-.31 1.564-.55 2.445-.719.654-.126 1.281-.219 1.882-.273.601-.054 1.073-.08 1.416-.08zm7.241 4.552c.076 0 .147.03.212.089.062.058.102.12.113.177v.045c0 .04-.011.09-.034.147-.02.06-.048.124-.08.192l1.964-.249c.053 0 .102-.004.144-.012l.097-.004c.183 0 .342.094.482.28.141.187.21.393.21.621 0 .049-.006.097-.016.14-.01.044-.032.087-.067.125-.072.148-.19.295-.352.437-.16.144-.328.293-.498.45-.236.198-.453.413-.652.644-.197.231-.298.49-.298.775 0 .14.035.241.105.312.07.068.185.103.345.103.13 0 .267-.02.411-.066.144-.044.29-.103.442-.171.098-.049.197-.1.3-.155.101-.055.197-.111.295-.17.119-.07.234-.142.348-.216.113-.074.21-.135.297-.182 0 .058-.002.114-.008.17-.006.052-.01.104-.01.155v.31c-.138.108-.298.227-.482.36-.18.134-.37.275-.562.422-.13.1-.263.194-.401.29-.14.092-.287.182-.434.27-.216.13-.434.234-.655.312-.218.08-.425.118-.618.118-.3 0-.554-.103-.756-.31-.205-.208-.306-.463-.306-.768 0-.404.116-.781.354-1.13.235-.35.494-.682.771-1 .064-.068.13-.134.193-.199.065-.063.128-.131.195-.2l-1.804.343c-.13.137-.244.255-.346.353-.101.098-.199.193-.297.28-.032.021-.058.04-.081.06-.02.018-.047.04-.08.059-.118.109-.254.219-.403.332-.15.115-.338.255-.563.423V11.2c0-.051.003-.103.007-.156.009-.055.015-.111.025-.17.117-.09.218-.162.299-.223.08-.06.153-.112.217-.163.01-.009.022-.022.04-.036.014-.015.034-.03.055-.051.044-.041.087-.083.13-.135.042-.049.097-.102.159-.16-.147-.021-.252-.058-.313-.12-.06-.057-.09-.157-.09-.293 0-.1.02-.206.059-.32.038-.113.089-.224.153-.333.107-.195.24-.383.401-.56.162-.179.334-.34.516-.488.162-.13.316-.233.474-.31.155-.079.287-.119.393-.119zm52.273 1.581c-.587.159-1.163.34-1.72.539-.56.203-1.102.457-1.626.76-.108.06-.201.118-.281.172-.08.056-.153.11-.218.17-.15.128-.252.266-.305.414-.055.146-.08.33-.08.545 0 .13.018.215.054.26.04.045.105.066.202.066.194 0 .466-.105.82-.317.357-.212.72-.465 1.095-.762l.29-.236c.098-.08.187-.154.274-.222.332-.275.631-.538.901-.79.269-.252.465-.448.594-.583zm-28.55 0c-.589.158-1.164.339-1.72.539-.558.203-1.1.457-1.626.76-.107.06-.202.118-.283.172-.08.056-.152.11-.216.17-.151.128-.251.266-.305.415-.056.145-.082.33-.082.544 0 .13.02.215.056.26.037.045.105.065.202.065.193 0 .466-.104.82-.316.356-.212.72-.465 1.096-.762.094-.078.192-.157.29-.236.095-.08.185-.154.273-.222.331-.275.632-.539.9-.79.27-.251.468-.448.596-.583zm59.144 0c-.59.158-1.161.339-1.72.539-.56.204-1.101.457-1.627.76-.105.06-.2.118-.282.172-.078.056-.15.11-.216.169-.15.13-.253.267-.305.416-.054.144-.084.33-.084.544 0 .13.02.215.06.26.035.045.103.066.199.066.197 0 .469-.105.821-.317.355-.212.719-.465 1.094-.762.097-.077.195-.157.292-.236.096-.08.187-.154.273-.222.334-.275.63-.539.901-.79.269-.252.467-.447.594-.583zm-90.704-3.96c-.03.108-.058.202-.079.281-.021.079-.042.147-.064.207-.031.068-.063.13-.09.184-.027.054-.059.105-.088.156l-.096.118c-.033.039-.07.084-.115.134-.266.304-.596.68-.987 1.13-.392.447-.824.953-1.296 1.513-.074.078-.188.203-.337.369-.15.17-.312.352-.483.55-.035.047-.07.095-.115.14-.04.042-.08.09-.113.14-.182.227-.336.44-.467.64-.127.202-.191.363-.191.482 0 .137.08.242.242.318.159.074.385.11.675.11.246 0 .488-.005.724-.021.237-.015.473-.033.708-.051.377-.04.8-.114 1.271-.215.472-.105.95-.244 1.435-.42 1.029-.359 1.975-.854 2.84-1.494.863-.64 1.294-1.414 1.294-2.32 0-.64-.364-1.114-1.095-1.42-.729-.304-1.919-.477-3.573-.517zm50.342-.162c-.01.146-.024.262-.04.346-.018.084-.05.165-.105.244-.01.02-.024.038-.04.051-.016.016-.03.032-.04.053L70.78 7.963c.085 0 .168-.007.25-.016l.248-.03c.077 0 .156-.004.242-.007.084-.005.166-.008.242-.008.074 0 .136.014.185.045.048.029.07.069.07.116 0 .041-.022.076-.07.104-.049.03-.1.055-.154.075-.116.03-.235.057-.345.081-.114.023-.228.051-.346.082-.118.018-.234.043-.347.073-.112.03-.227.06-.345.089l-.355.472c.332.04.588.065.764.074.177.01.336.017.475.017h.098c.203 0 .411-.011.626-.031.216-.02.429-.049.644-.089.644-.129 1.262-.323 1.86-.58.593-.264 1.064-.568 1.408-.913.098-.098.187-.21.272-.33.087-.125.166-.256.241-.392.077-.14.136-.274.18-.4.042-.127.063-.242.063-.339 0-.278-.22-.481-.658-.614-.442-.134-.92-.23-1.434-.29-.334-.04-.655-.065-.965-.08-.312-.015-.57-.028-.772-.036h-.05zm-11.78.796l-.419.363c-.131.113-.246.224-.353.333-.246.247-.467.496-.66.754-.193.254-.377.531-.548.827-.085.137-.173.283-.256.437-.087.152-.173.313-.262.48.132-.119.255-.237.374-.355.117-.118.235-.233.354-.34.353-.373.682-.76.98-1.154.303-.392.563-.837.79-1.33zm60.623-1.344c-.063.059-.128.116-.199.17-.071.054-.137.111-.203.17-.76.621-1.436 1.261-2.027 1.923-.588.658-1.137 1.412-1.642 2.26.797-.641 1.547-1.338 2.262-2.09.713-.756 1.317-1.56 1.809-2.417z" transform="translate(2 1.257) translate(8.386 10.756)"/>
            <path fill="#A7211F" d="M8.083 10.981c.615.338.786.922 1.023 1.407-2.18 1.588-5.707 2.912-6.623 3.757-.767-.12-1.186-.388-1.49-.719-.144-.164-.11-.334.012-.418 2.39-1.49 5.583-2.03 7.078-4.027zm0-3.358c.615.336.786.92 1.024 1.404-2.182 1.592-5.733 2.553-6.647 3.397-.968-.153-1.383-.538-1.71-.985C3.16 9.83 6.538 9.687 8.081 7.623zm0-3.36c.615.34.786.92 1.024 1.406C6.925 7.26 3.374 8.222 2.46 9.067c-.968-.156-1.383-.54-1.71-.987C3.16 6.47 6.538 6.328 8.081 4.263zM9.106.253c.234.435.314.938.234 1.515-2.18 1.59-5.967 3.096-6.88 3.942-.97-.156-1.384-.541-1.712-.987C2.96 3.226 7.037 1.718 9.107.253z" transform="translate(2 1.257) translate(8.386 10.756)"/>
            <path fill="#DD0C1D" d="M.748 11.439c.452.618 1.068 1.116 3.074 1.055.764-.022 2.177.023 3.46.087 1.232.06 2.831.833 2.454 2.356-.074.298-.248.582-.63.808-.34-.698-.544-1.594-2.125-1.677-1.597-.083-3.298.017-4.892-.079-1.49-.088-2.917-1.333-1.341-2.55zm0-3.36c.452.619 1.068 1.116 3.074 1.056.764-.023 2.177.024 3.46.086 1.232.061 2.831.836 2.454 2.356-.074.299-.248.584-.63.81-.34-.697-.544-1.596-2.125-1.68-1.597-.08-3.298.02-4.892-.076C.599 10.54-.828 9.295.748 8.08zm0-3.356c.452.614 1.068 1.115 3.074 1.055.764-.024 2.177.022 3.46.084 1.232.06 2.831.836 2.454 2.358-.074.299-.248.58-.63.808-.34-.698-.544-1.594-2.125-1.679-1.597-.082-3.298.019-4.892-.078C.599 7.183-.828 5.94.748 4.723zm0-3.36c.452.617 1.068 1.116 3.074 1.055.764-.022 2.177.022 3.46.086 1.232.06 2.831.834 2.454 2.358-.074.298-.248.582-.63.807-.34-.698-.544-1.594-2.125-1.677-1.597-.085-3.298.017-4.892-.077C.599 3.825-.828 2.579.748 1.362z" transform="translate(2 1.257) translate(8.386 10.756)"/>
        </g>
    </g>
</svg>
